<svg width="734" height="640" viewBox="0 0 734 640" fill="none" xmlns="http://www.w3.org/2000/svg" xmlns:xlink="http://www.w3.org/1999/xlink">
<rect width="734" height="640" fill="url(#pattern0)"/>
<defs>
<pattern id="pattern0" patternContentUnits="objectBoundingBox" width="1" height="1">
<use xlink:href="#image0" transform="translate(-0.00408719) scale(0.0013624 0.0015625)"/>
</pattern>
<image id="image0" width="740" height="640" xlink:href="img/home.png"/>
</defs>
<path d="M222 529.159L442.8 539.208L512 522V549.256L443.5 574L222 560.184V529.159Z" fill="#3595F6" fill-opacity="0.75"/>
<path d="M223 532.03V504L443.3 507.7L513 504V526.424L443.7 541L223 532.03Z" fill="#3595F6" fill-opacity="0.75"/>
<path d="M223 506V481H444H513V504L445 511L223 506Z" fill="#3595F6" fill-opacity="0.75"/>
<path d="M223 480V455L444.3 451.3L512 458V480H444" fill="#3595F6" fill-opacity="0.75"/>
<path d="M223 456.749V428.576L444.5 425L513 436.92V460L444 452.74L223 456.749Z" fill="#3595F6" fill-opacity="0.75"/>
<path d="M222 429V405.3L443 393L514 416V437.3L443 425L222 429Z" fill="#3595F6" fill-opacity="0.75"/>
<path d="M222 406V381L444.2 364.7L514 393.3V414L443.7 392.3L222 406Z" fill="#3595F6" fill-opacity="0.75"/>
<path d="M222 382V357L444.5 336.7L514 373.3V394L442 365.3L222 382Z" fill="#3595F6" fill-opacity="0.75"/>
<path d="M222 359.412V331.76L445 303.3L514 353.997V379L444.7 335.216L222 359.412Z" fill="#3595F6" fill-opacity="0.75"/>
<path d="M222 333V309L444.5 280.3L514 331.3V352L443.7 309.7L222 333Z" fill="#3595F6" fill-opacity="0.75"/>
<path d="M221 309.443V284.835L443.3 251L514 311.801V332L444 280.016L221 309.443Z" fill="#3595F6" fill-opacity="0.75"/>
<path d="M222 281V257L443.2 222L513 286V307L444.3 248.7L222 281Z" fill="#3595F6" fill-opacity="0.75"/>
<path d="M222 259V234L444.3 196L513 266.3V287L444 223L222 259Z" fill="#3595F6" fill-opacity="0.75"/>
<path d="M222 233V208L442.8 164.3L513 243.3V266L444 192.7L222 233Z" fill="#3595F6" fill-opacity="0.75"/>
<path d="M223 209V184L443 136L513 221V244L442.3 164.7L223 209Z" fill="#3595F6" fill-opacity="0.75"/>
<path d="M222 184V159L441.8 107L513 199.3V222L443.3 135.7L222 184Z" fill="#3595F6" fill-opacity="0.75"/>
<path d="M222 160.62V133.073L444 73L513 180.751V203L443.7 105.844L222 160.62Z" fill="#3595F6" fill-opacity="0.75"/>
</svg>
